<?xml version="1.0" encoding="utf-8"?>
<!-- Uploaded to: SVG Repo, www.svgrepo.com, Generator: SVG Repo Mixer Tools -->
<svg width="800px" height="800px" viewBox="0 0 1024 1024" fill="#000000" class="icon"  version="1.1" xmlns="http://www.w3.org/2000/svg"><path d="M512 0L0 320h1024L512 0z m288 384l32 64v384h128V448l32-64h-192z m-256 0l32 64v384h128V448l32-64h-192z m-256 0l32 64v384h128V448l32-64h-192z m-256 0l32 64v384h128V448l32-64H32z m0 512L0 1024h1024l-32-128H32zM576 192c0 35.346-28.654 64-64 64s-64-28.654-64-64 28.654-64 64-64 64 28.654 64 64z" /></svg>